<svg width="87" height="37" viewBox="0 0 87 37" fill="none" xmlns="http://www.w3.org/2000/svg">
<path d="M0.143555 3.29111C0.143555 2.43124 0.638981 1.68781 1.62984 1.05186C2.62895 0.420391 3.66521 0.102417 4.73451 0.102417C6.04326 0.102417 6.82356 0.586095 7.07953 1.55345L13.5036 27.0809L19.8781 1.55345C20.1175 0.586095 20.8937 0.102417 22.2066 0.102417C23.2841 0.102417 24.3204 0.420391 25.3112 1.05186C26.3021 1.68781 26.7975 2.43124 26.7975 3.29111C26.7975 3.38964 26.7686 3.57326 26.7149 3.84645L18.1771 34.1928C17.9335 35.0303 17.372 35.6752 16.4926 36.1275C15.6215 36.5664 14.6183 36.7903 13.4871 36.7903C12.3641 36.7903 11.3608 36.5664 10.4815 36.1275C9.61034 35.6752 9.05298 35.0303 8.81352 34.1928L0.24264 3.84645C0.176583 3.57326 0.143555 3.38964 0.143555 3.29111Z" fill="black" fill-opacity="0.65"/>
<path d="M29.9072 7.16056C29.1806 6.444 28.8173 5.611 28.8173 4.6526C28.8173 3.68524 29.1806 2.85672 29.9072 2.16255C30.6421 1.45942 31.5339 1.10562 32.5825 1.10562C33.594 1.10562 34.4652 1.45942 35.1918 2.16255C35.9267 2.85672 36.2982 3.68524 36.2982 4.6526C36.2982 5.611 35.9267 6.444 35.1918 7.16056C34.4652 7.86816 33.594 8.21748 32.5825 8.21748C31.5339 8.21748 30.6421 7.86816 29.9072 7.16056ZM29.0485 34.1032V15.1323C29.0485 14.4426 29.3705 13.8783 30.0228 13.4484C30.6834 13.0184 31.5339 12.8035 32.5825 12.8035C33.594 12.8035 34.4404 13.0184 35.1257 13.4484C35.8193 13.8783 36.1661 14.4426 36.1661 15.1323V34.1032C36.1661 34.7034 35.8111 35.2497 35.1092 35.7513C34.4032 36.244 33.561 36.4858 32.5825 36.4858C31.5669 36.4858 30.7247 36.2484 30.0559 35.7692C29.3829 35.2811 29.0485 34.7257 29.0485 34.1032Z" fill="black" fill-opacity="0.65"/>
<path d="M40.2924 25.0387V11.854C40.2924 7.80544 41.3039 4.84067 43.331 2.95075C45.3664 1.05186 48.0251 0.102417 51.3073 0.102417C54.6639 0.102417 57.4217 0.98916 59.581 2.75369C61.7361 4.50926 62.8178 6.92766 62.8178 10.0089C62.8178 11.442 62.5412 12.4183 61.9921 12.9289C61.4388 13.4439 60.5223 13.6992 59.2342 13.6992C56.8768 13.6992 55.6836 12.9199 55.6506 11.3524C55.6506 10.8867 55.6341 10.5015 55.601 10.188C55.5763 9.86555 55.4896 9.4804 55.3368 9.0236C55.1799 8.55783 54.9653 8.19507 54.6928 7.93084C54.4162 7.65765 54.0074 7.41133 53.4707 7.19637C52.9423 6.9814 52.3065 6.87391 51.5716 6.87391C48.8178 6.87391 47.443 8.53544 47.443 11.854V25.0387C47.443 28.3618 48.8013 30.0188 51.522 30.0188C54.2717 30.0188 55.6506 28.3618 55.6506 25.0387V23.3548H52.9588C52.2734 23.3548 51.7408 23.0637 51.3569 22.477C50.9812 21.8948 50.7954 21.1872 50.7954 20.3632C50.7954 19.6018 50.9936 18.9121 51.3899 18.3031C51.7863 17.685 52.3065 17.3715 52.9588 17.3715H60.6544C61.3232 17.3715 61.8517 17.6178 62.2398 18.106C62.6237 18.5852 62.8178 19.154 62.8178 19.8078V25.0387C62.8178 29.0873 61.7939 32.061 59.7461 33.9599C57.6984 35.8498 54.957 36.7903 51.522 36.7903C48.1284 36.7903 45.4118 35.8498 43.364 33.9599C41.3162 32.061 40.2924 29.0873 40.2924 25.0387Z" fill="black" fill-opacity="0.65"/>
<path d="M65.7053 26.4361V22.9428C65.7053 20.1259 66.7292 17.6851 68.777 15.616C70.8247 13.538 73.273 12.499 76.1258 12.499C78.9332 12.499 81.3773 13.529 83.4581 15.5802C85.5389 17.6358 86.5793 20.09 86.5793 22.9428V26.4361C86.5793 29.2217 85.5265 31.6759 83.4251 33.7987C81.3319 35.926 78.8919 36.9874 76.1093 36.9874C73.3349 36.9874 70.9073 35.926 68.8265 33.7987C66.7457 31.6759 65.7053 29.2217 65.7053 26.4361ZM72.823 26.4361C72.823 27.4303 73.1409 28.317 73.7808 29.1053C74.4166 29.8845 75.1927 30.2697 76.1093 30.2697C77.0341 30.2697 77.8185 29.8845 78.4708 29.1053C79.1314 28.317 79.4617 27.4303 79.4617 26.4361V22.9428C79.4617 21.9889 79.1231 21.129 78.4543 20.3632C77.7814 19.6019 77.0011 19.2167 76.1093 19.2167C75.2258 19.2167 74.4579 19.6019 73.7973 20.3632C73.145 21.129 72.823 21.9889 72.823 22.9428V26.4361Z" fill="black" fill-opacity="0.65"/>
</svg>
